<svg width="512" height="512" viewBox="0 0 512 512" fill="none" xmlns="http://www.w3.org/2000/svg">
<g clip-path="url(#clip0_3_129)">
<path d="M459.89 461.784C456.874 460.542 454.764 459.739 452.71 458.805C392.275 431.338 331.869 403.795 271.369 376.477C266.747 374.386 264.964 372.005 264.983 366.804C265.16 292.374 265.113 217.935 265.085 143.505C265.085 139.761 264.936 136.662 269.501 134.692C296.064 123.208 322.467 111.36 348.936 99.6614C349.739 99.3066 350.654 99.2133 352.306 98.8025C352.474 101.286 352.745 103.415 352.745 105.553C352.773 154.027 352.708 202.502 352.857 250.977C352.866 255.449 351.699 257.718 347.404 259.744C332.448 266.811 324.876 283.178 328.62 298.77C332.457 314.754 346.275 325.696 362.632 325.705C378.663 325.705 392.751 314.819 396.561 299.498C400.547 283.439 393.097 266.989 377.925 259.753C373.724 257.746 372.333 255.589 372.351 251.014C372.519 199.094 372.473 147.174 372.417 95.2546C372.417 91.5854 372.781 88.9339 376.87 87.1693C403.218 75.7415 429.425 64.0149 455.688 52.4191C456.874 51.8963 458.2 51.6722 459.899 51.1774V461.802L459.89 461.784Z" fill="#F7FF62"/>
<path d="M51.9969 461.532V51C54.6578 52.0737 56.7678 52.8206 58.8125 53.7542C119.256 81.222 179.654 108.783 240.182 136.045C245.242 138.324 246.643 141.012 246.633 146.325C246.456 220.531 246.456 294.746 246.633 368.952C246.643 374.031 245.289 376.608 240.481 378.68C213.704 390.211 187.104 402.133 159.338 414.411C159.142 411.479 158.88 409.35 158.88 407.222C158.852 358.747 158.908 310.272 158.778 261.788C158.768 257.4 159.777 254.963 164.146 252.891C179.411 245.674 186.805 229.419 182.903 213.239C179.224 197.937 165.089 186.929 149.086 186.901C132.682 186.864 118.911 197.713 115.027 213.734C111.218 229.428 118.668 245.711 133.616 252.816C137.864 254.842 139.134 257.027 139.115 261.546C138.956 313.465 139.003 365.395 139.04 417.314C139.04 420.89 138.938 423.654 134.736 425.465C108.165 436.949 81.7427 448.76 55.2553 460.458C54.443 460.813 53.5654 461.018 51.9875 461.532H51.9969Z" fill="#F7FF62"/>
</g>
<defs>
<clipPath id="clip0_3_129">
<rect width="407.89" height="410.784" fill="white" transform="translate(52 51)"/>
</clipPath>
</defs>
</svg>
