<svg width="55" height="55" viewBox="0 0 55 55" fill="none" xmlns="http://www.w3.org/2000/svg">
<g clip-path="url(#clip0_3_232)">
<path d="M50.1656 50.4862C49.8317 50.3487 49.5981 50.2598 49.3706 50.1564C42.6787 47.1149 35.9898 44.0651 29.2906 41.0402C28.7789 40.8086 28.5814 40.545 28.5835 39.9691C28.6032 31.7275 28.598 23.4848 28.5949 15.2431C28.5949 14.8286 28.5783 14.4854 29.0839 14.2672C32.0251 12.9956 34.9488 11.6837 37.8797 10.3883C37.9686 10.349 38.0699 10.3387 38.2529 10.2932C38.2715 10.5682 38.3015 10.8039 38.3015 11.0406C38.3046 16.4083 38.2973 21.7759 38.3139 27.1435C38.3149 27.6387 38.1857 27.8899 37.7101 28.1143C36.0539 28.8969 35.2155 30.7092 35.6301 32.4357C36.055 34.2056 37.585 35.4172 39.3963 35.4182C41.1714 35.4182 42.7314 34.2128 43.1532 32.5163C43.5946 30.7381 42.7697 28.9165 41.0897 28.1153C40.6245 27.893 40.4704 27.6542 40.4725 27.1476C40.4911 21.3985 40.4859 15.6494 40.4797 9.90034C40.4797 9.49405 40.5201 9.20044 40.9729 9.00505C43.8903 7.73965 46.7923 6.44116 49.7004 5.15715C49.8317 5.09926 49.9785 5.07445 50.1667 5.01965V50.4883L50.1656 50.4862Z" fill="#1F1D0D"/>
<path d="M4.99957 50.4583V5C5.29421 5.11889 5.52785 5.2016 5.75426 5.30498C12.4472 8.34649 19.1351 11.3983 25.8373 14.4171C26.3977 14.6694 26.5527 14.9671 26.5517 15.5553C26.5321 23.7722 26.5321 31.9901 26.5517 40.2069C26.5527 40.7693 26.4028 41.0546 25.8704 41.2841C22.9054 42.5609 19.96 43.8811 16.8855 45.2406C16.8637 44.916 16.8348 44.6803 16.8348 44.4445C16.8317 39.0769 16.8379 33.7093 16.8234 28.3407C16.8224 27.8548 16.934 27.5849 17.4179 27.3554C19.1082 26.5563 19.927 24.7564 19.4948 22.9648C19.0875 21.2703 17.5223 20.0515 15.7503 20.0484C13.9339 20.0442 12.409 21.2455 11.9789 23.0196C11.5571 24.7574 12.3821 26.5604 14.0373 27.3472C14.5077 27.5715 14.6483 27.8134 14.6462 28.3138C14.6286 34.0629 14.6338 39.813 14.6379 45.5621C14.6379 45.9581 14.6265 46.2641 14.1613 46.4646C11.2191 47.7362 8.29333 49.044 5.36037 50.3394C5.27043 50.3787 5.17325 50.4014 4.99854 50.4583H4.99957Z" fill="#1F1D0D"/>
</g>
<defs>
<clipPath id="clip0_3_232">
<rect width="45.1657" height="45.4862" fill="white" transform="translate(5 5)"/>
</clipPath>
</defs>
</svg>
