<svg width="142" height="32" viewBox="0 0 142 32" fill="none" xmlns="http://www.w3.org/2000/svg">
<g clip-path="url(#clip0_3_124)">
<path d="M31.3163 31.5384C31.0848 31.4431 30.9228 31.3814 30.7651 31.3098C26.1251 29.2009 21.4873 27.0863 16.8424 24.9889C16.4875 24.8283 16.3506 24.6455 16.3521 24.2463C16.3657 18.5318 16.3621 12.8166 16.3599 7.10219C16.3599 6.81475 16.3485 6.57677 16.699 6.42552C18.7383 5.54384 20.7655 4.6342 22.7977 3.73603C22.8593 3.70879 22.9296 3.70162 23.0564 3.67008C23.0693 3.86076 23.0901 4.02419 23.0901 4.18834C23.0923 7.91004 23.0873 11.6317 23.0987 15.3535C23.0994 15.6968 23.0098 15.871 22.6801 16.0265C21.5318 16.5692 20.9504 17.8257 21.2379 19.0228C21.5325 20.25 22.5934 21.0901 23.8492 21.0908C25.08 21.0908 26.1617 20.255 26.4541 19.0787C26.7602 17.8458 26.1882 16.5828 25.0234 16.0273C24.7008 15.8731 24.594 15.7076 24.5954 15.3563C24.6083 11.3701 24.6048 7.3839 24.6005 3.39769C24.6005 3.11599 24.6284 2.91241 24.9424 2.77693C26.9652 1.89955 28.9773 0.999231 30.9937 0.108947C31.0848 0.0688056 31.1865 0.051602 31.317 0.0136108V31.5398L31.3163 31.5384Z" fill="#1F1D0D"/>
<path d="M-0.000259748 31.5191V0C0.204032 0.0824337 0.366033 0.139779 0.523015 0.21146C5.16367 2.32033 9.80075 4.43637 14.4479 6.52947C14.8364 6.70437 14.9439 6.91081 14.9432 7.31868C14.9296 13.0159 14.9296 18.7139 14.9432 24.4111C14.9439 24.8011 14.84 24.9989 14.4708 25.1581C12.415 26.0433 10.3728 26.9587 8.24096 27.9013C8.22591 27.6762 8.20584 27.5128 8.20584 27.3494C8.20369 23.6277 8.20799 19.9059 8.19795 16.1835C8.19724 15.8466 8.27465 15.6595 8.61012 15.5004C9.78211 14.9463 10.3498 13.6983 10.0502 12.4561C9.76778 11.2812 8.68252 10.4361 7.4539 10.434C6.19445 10.4311 5.13715 11.264 4.83896 12.4941C4.5465 13.699 5.11852 14.9492 6.26614 15.4947C6.59229 15.6502 6.68977 15.818 6.68834 16.1649C6.67615 20.1511 6.67974 24.138 6.68261 28.1242C6.68261 28.3988 6.67472 28.6109 6.35215 28.75C4.3121 29.6317 2.28351 30.5385 0.249909 31.4366C0.187546 31.4639 0.120165 31.4796 -0.000976562 31.5191H-0.000259748Z" fill="#1F1D0D"/>
</g>
<path d="M36.2783 26V6.77278H43.864C45.3223 6.77278 46.5647 7.0513 47.5912 7.60834C48.6176 8.15912 49.4 8.92583 49.9383 9.90847C50.4828 10.8849 50.755 12.0114 50.755 13.2883C50.755 14.5651 50.4796 15.6917 49.9289 16.668C49.3781 17.6444 48.5801 18.4049 47.5349 18.9494C46.4959 19.4939 45.2379 19.7662 43.7608 19.7662H38.9258V16.5084H43.1036C43.8859 16.5084 44.5306 16.3739 45.0376 16.1047C45.5508 15.8294 45.9326 15.4507 46.1829 14.9688C46.4396 14.4806 46.5679 13.9204 46.5679 13.2883C46.5679 12.6498 46.4396 12.0928 46.1829 11.6171C45.9326 11.1352 45.5508 10.7628 45.0376 10.4999C44.5243 10.2308 43.8734 10.0962 43.0848 10.0962H40.3434V26H36.2783ZM53.3204 26V11.5796H57.1978V14.0956H57.348C57.6108 13.2006 58.0521 12.5247 58.6717 12.0678C59.2913 11.6046 60.0049 11.373 60.8122 11.373C61.0125 11.373 61.2285 11.3856 61.46 11.4106C61.6916 11.4356 61.895 11.4701 62.0703 11.5139V15.0626C61.8825 15.0063 61.6228 14.9562 61.291 14.9124C60.9593 14.8686 60.6558 14.8467 60.3804 14.8467C59.7921 14.8467 59.2663 14.975 58.8032 15.2316C58.3463 15.482 57.9832 15.8325 57.7141 16.2831C57.4512 16.7338 57.3198 17.2532 57.3198 17.8416V26H53.3204ZM69.9823 26.2816C68.5239 26.2816 67.2628 25.9718 66.1988 25.3522C65.141 24.7263 64.3242 23.8563 63.7484 22.7423C63.1726 21.6219 62.8847 20.3232 62.8847 18.8461C62.8847 17.3565 63.1726 16.0547 63.7484 14.9406C64.3242 13.8203 65.141 12.9503 66.1988 12.3306C67.2628 11.7048 68.5239 11.3918 69.9823 11.3918C71.4406 11.3918 72.6986 11.7048 73.7564 12.3306C74.8204 12.9503 75.6403 13.8203 76.2161 14.9406C76.7919 16.0547 77.0798 17.3565 77.0798 18.8461C77.0798 20.3232 76.7919 21.6219 76.2161 22.7423C75.6403 23.8563 74.8204 24.7263 73.7564 25.3522C72.6986 25.9718 71.4406 26.2816 69.9823 26.2816ZM70.001 23.1835C70.6645 23.1835 71.2184 22.9957 71.6628 22.6202C72.1071 22.2384 72.442 21.7189 72.6673 21.0618C72.8989 20.4046 73.0147 19.6566 73.0147 18.818C73.0147 17.9793 72.8989 17.2313 72.6673 16.5742C72.442 15.917 72.1071 15.3975 71.6628 15.0157C71.2184 14.6339 70.6645 14.443 70.001 14.443C69.3313 14.443 68.768 14.6339 68.3111 15.0157C67.8605 15.3975 67.5194 15.917 67.2878 16.5742C67.0625 17.2313 66.9498 17.9793 66.9498 18.818C66.9498 19.6566 67.0625 20.4046 67.2878 21.0618C67.5194 21.7189 67.8605 22.2384 68.3111 22.6202C68.768 22.9957 69.3313 23.1835 70.001 23.1835ZM79.6804 11.5796H83.6798V26.7135C83.6798 27.8276 83.4607 28.7289 83.0226 29.4173C82.5845 30.1058 81.9555 30.6097 81.1355 30.9289C80.3219 31.2481 79.3486 31.4077 78.2158 31.4077C78.0781 31.4077 77.9467 31.4045 77.8215 31.3983C77.69 31.3983 77.5524 31.3951 77.4084 31.3889V28.2626C77.5148 28.2688 77.6087 28.272 77.69 28.272C77.7652 28.2782 77.8465 28.2814 77.9341 28.2814C78.5788 28.2814 79.0294 28.1437 79.2861 27.8683C79.5489 27.5991 79.6804 27.1923 79.6804 26.6478V11.5796ZM81.6707 9.7207C81.0823 9.7207 80.5754 9.52355 80.1498 9.12924C79.7242 8.72867 79.5114 8.24987 79.5114 7.69283C79.5114 7.14205 79.7242 6.66951 80.1498 6.2752C80.5754 5.87463 81.0823 5.67435 81.6707 5.67435C82.2715 5.67435 82.7816 5.87463 83.201 6.2752C83.6266 6.66951 83.8394 7.14205 83.8394 7.69283C83.8394 8.24987 83.6266 8.72867 83.201 9.12924C82.7816 9.52355 82.2715 9.7207 81.6707 9.7207ZM93.4553 26.2816C91.972 26.2816 90.6952 25.9812 89.6249 25.3804C88.5609 24.7733 87.741 23.9158 87.1652 22.808C86.5894 21.6939 86.3015 20.3764 86.3015 18.8555C86.3015 17.3722 86.5894 16.0703 87.1652 14.95C87.741 13.8296 88.5515 12.9565 89.5967 12.3306C90.6482 11.7048 91.8812 11.3918 93.2957 11.3918C94.2471 11.3918 95.1327 11.5452 95.9526 11.8518C96.7788 12.1523 97.4986 12.606 98.1119 13.2131C98.7316 13.8203 99.2135 14.5838 99.5577 15.5039C99.902 16.4177 100.074 17.4879 100.074 18.7147V19.8131H87.8975V17.3346H96.3094C96.3094 16.7588 96.1842 16.2487 95.9338 15.8043C95.6835 15.3599 95.3361 15.0126 94.8917 14.7622C94.4536 14.5056 93.9435 14.3773 93.3615 14.3773C92.7543 14.3773 92.2161 14.5181 91.7467 14.7998C91.2835 15.0752 90.9205 15.4476 90.6576 15.917C90.3948 16.3801 90.2602 16.8965 90.2539 17.466V19.8225C90.2539 20.536 90.3854 21.1525 90.6482 21.672C90.9174 22.1915 91.296 22.5921 91.7842 22.8737C92.2724 23.1553 92.8514 23.2962 93.5211 23.2962C93.9654 23.2962 94.3723 23.2336 94.7415 23.1084C95.1108 22.9832 95.4269 22.7955 95.6897 22.5451C95.9526 22.2948 96.1529 21.9881 96.2906 21.6251L99.9896 21.8692C99.8018 22.7579 99.4169 23.534 98.8348 24.1974C98.259 24.8546 97.5142 25.3679 96.6004 25.7371C95.6929 26.1001 94.6445 26.2816 93.4553 26.2816ZM109.199 26.2816C107.722 26.2816 106.452 25.9687 105.388 25.3428C104.33 24.7107 103.516 23.8344 102.947 22.7141C102.384 21.5938 102.102 20.3044 102.102 18.8461C102.102 17.369 102.387 16.0734 102.956 14.9594C103.532 13.839 104.349 12.9659 105.407 12.34C106.464 11.7079 107.722 11.3918 109.181 11.3918C110.439 11.3918 111.54 11.6203 112.485 12.0772C113.43 12.5341 114.178 13.1756 114.729 14.0018C115.28 14.8279 115.584 15.7981 115.64 16.9121H111.866C111.759 16.1924 111.478 15.6134 111.021 15.1753C110.57 14.7309 109.979 14.5087 109.246 14.5087C108.627 14.5087 108.085 14.6777 107.622 15.0157C107.165 15.3474 106.809 15.8325 106.552 16.4709C106.295 17.1093 106.167 17.8823 106.167 18.7898C106.167 19.7098 106.292 20.4922 106.543 21.1369C106.799 21.7815 107.159 22.2728 107.622 22.6108C108.085 22.9488 108.627 23.1178 109.246 23.1178C109.703 23.1178 110.113 23.0239 110.476 22.8361C110.846 22.6484 111.149 22.3761 111.387 22.0194C111.631 21.6564 111.791 21.2214 111.866 20.7144H115.64C115.577 21.816 115.277 22.7861 114.739 23.6248C114.207 24.4572 113.471 25.1081 112.532 25.5775C111.594 26.0469 110.483 26.2816 109.199 26.2816ZM125.871 11.5796V14.5838H117.187V11.5796H125.871ZM119.158 8.12469H123.158V21.5687C123.158 21.938 123.214 22.2259 123.327 22.4324C123.439 22.6327 123.596 22.7736 123.796 22.8549C124.002 22.9363 124.24 22.977 124.509 22.977C124.697 22.977 124.885 22.9613 125.073 22.93C125.261 22.8925 125.404 22.8643 125.505 22.8455L126.134 25.8216C125.933 25.8842 125.652 25.9562 125.289 26.0376C124.926 26.1252 124.484 26.1784 123.965 26.1972C123.001 26.2347 122.156 26.1064 121.43 25.8122C120.71 25.5181 120.15 25.0612 119.75 24.4415C119.349 23.8219 119.152 23.0396 119.158 22.0945V8.12469ZM140.294 15.6917L136.632 15.917C136.569 15.604 136.435 15.3224 136.228 15.072C136.022 14.8154 135.75 14.612 135.412 14.4618C135.08 14.3053 134.682 14.2271 134.219 14.2271C133.6 14.2271 133.077 14.3585 132.651 14.6214C132.226 14.878 132.013 15.2222 132.013 15.6541C132.013 15.9983 132.151 16.2894 132.426 16.5272C132.702 16.7651 133.174 16.9559 133.844 17.0999L136.454 17.6256C137.856 17.9136 138.901 18.3767 139.589 19.0151C140.278 19.6535 140.622 20.4922 140.622 21.5312C140.622 22.4763 140.344 23.3056 139.787 24.0191C139.236 24.7326 138.478 25.2896 137.515 25.6902C136.557 26.0845 135.452 26.2816 134.201 26.2816C132.292 26.2816 130.771 25.8842 129.638 25.0893C128.511 24.2882 127.851 23.1992 127.657 21.8222L131.591 21.6157C131.709 22.1977 131.997 22.6421 132.454 22.9488C132.911 23.2492 133.496 23.3994 134.21 23.3994C134.911 23.3994 135.474 23.2649 135.9 22.9957C136.332 22.7204 136.551 22.3667 136.557 21.9349C136.551 21.5719 136.397 21.2746 136.097 21.043C135.797 20.8051 135.333 20.6236 134.707 20.4985L132.21 20.0009C130.802 19.7192 129.754 19.231 129.065 18.5363C128.383 17.8416 128.042 16.9559 128.042 15.8794C128.042 14.9531 128.292 14.1551 128.793 13.4854C129.3 12.8157 130.01 12.2994 130.924 11.9363C131.844 11.5733 132.921 11.3918 134.154 11.3918C135.975 11.3918 137.408 11.7767 138.453 12.5466C139.505 13.3164 140.118 14.3648 140.294 15.6917Z" fill="#1F1D0D"/>
<defs>
<clipPath id="clip0_3_124">
<rect width="31.3162" height="31.5384" fill="white"/>
</clipPath>
</defs>
</svg>
