<svg width="143" height="32" viewBox="0 0 143 32" fill="none" xmlns="http://www.w3.org/2000/svg">
<g clip-path="url(#clip0_3_119)">
<path d="M31.3454 31.5679C31.1137 31.4725 30.9515 31.4108 30.7937 31.339C26.1494 29.2282 21.5073 27.1116 16.858 25.0123C16.5028 24.8515 16.3658 24.6686 16.3672 24.2689C16.3808 18.5491 16.3772 12.8286 16.3751 7.10883C16.3751 6.82112 16.3636 6.58291 16.7145 6.43152C18.7557 5.54901 20.7848 4.63852 22.8188 3.73951C22.8805 3.71225 22.9508 3.70508 23.0778 3.67351C23.0908 3.86436 23.1116 4.02794 23.1116 4.19225C23.1137 7.91743 23.1087 11.6426 23.1202 15.3678C23.1209 15.7115 23.0312 15.8858 22.7012 16.0415C21.5518 16.5847 20.9699 17.8424 21.2576 19.0406C21.5525 20.269 22.6143 21.1098 23.8714 21.1106C25.1033 21.1106 26.186 20.274 26.4787 19.0966C26.7851 17.8625 26.2125 16.5983 25.0466 16.0422C24.7238 15.888 24.6169 15.7222 24.6183 15.3707C24.6312 11.3807 24.6276 7.3908 24.6233 3.40086C24.6233 3.11889 24.6513 2.91512 24.9655 2.77952C26.9903 1.90132 29.0043 1.00015 31.0226 0.109036C31.1137 0.0688572 31.2156 0.0516376 31.3462 0.0136108V31.5694L31.3454 31.5679Z" fill="#F7FF62"/>
<path d="M-0.000259077 31.5486V0C0.204224 0.0825109 0.366376 0.13991 0.523506 0.211658C5.16851 2.3225 9.80992 4.44052 14.4614 6.53558C14.8503 6.71064 14.9579 6.91728 14.9572 7.32553C14.9435 13.0281 14.9435 18.7314 14.9572 24.434C14.9579 24.8243 14.8539 25.0223 14.4843 25.1816C12.4266 26.0677 10.3825 26.9839 8.24868 27.9274C8.23361 27.7021 8.21352 27.5385 8.21352 27.375C8.21137 23.6498 8.21567 19.9246 8.20563 16.1987C8.20491 15.8615 8.2824 15.6742 8.61818 15.5149C9.79127 14.9603 10.3595 13.7112 10.0596 12.4678C9.77692 11.2918 8.69065 10.4459 7.46088 10.4437C6.20025 10.4409 5.14196 11.2746 4.84349 12.5058C4.55075 13.7119 5.12331 14.9632 6.272 15.5092C6.59846 15.6649 6.69604 15.8328 6.6946 16.18C6.6824 20.17 6.68599 24.1606 6.68886 28.1506C6.68886 28.4254 6.68097 28.6377 6.3581 28.7769C4.31614 29.6594 2.28565 30.567 0.250143 31.4661C0.187722 31.4933 0.120279 31.5091 -0.000976562 31.5486H-0.000259077Z" fill="#F7FF62"/>
</g>
<path d="M36.3123 26V6.75478H43.9052C45.3648 6.75478 46.6084 7.03356 47.6358 7.59112C48.6632 8.14242 49.4463 8.90984 49.9851 9.89341C50.5301 10.8707 50.8026 11.9984 50.8026 13.2764C50.8026 14.5544 50.527 15.682 49.9757 16.6593C49.4244 17.6366 48.6256 18.3978 47.5794 18.9428C46.5395 19.4878 45.2803 19.7603 43.8018 19.7603H38.9623V16.4996H43.144C43.9271 16.4996 44.5724 16.3649 45.0798 16.0955C45.5935 15.8198 45.9757 15.4408 46.2262 14.9584C46.4831 14.4698 46.6115 13.9091 46.6115 13.2764C46.6115 12.6374 46.4831 12.0798 46.2262 11.6037C45.9757 11.1213 45.5935 10.7485 45.0798 10.4854C44.5661 10.216 43.9146 10.0813 43.1252 10.0813H40.3813V26H36.3123ZM53.3704 26V11.5661H57.2514V14.0845H57.4017C57.6648 13.1886 58.1065 12.5121 58.7267 12.0547C59.3469 11.5911 60.0611 11.3593 60.8692 11.3593C61.0697 11.3593 61.2858 11.3719 61.5176 11.3969C61.7494 11.422 61.953 11.4565 62.1285 11.5003V15.0524C61.9405 14.996 61.6805 14.9459 61.3485 14.902C61.0165 14.8582 60.7126 14.8363 60.437 14.8363C59.8481 14.8363 59.3219 14.9647 58.8583 15.2215C58.4009 15.4721 58.0376 15.823 57.7682 16.274C57.5051 16.7251 57.3735 17.2451 57.3735 17.8339V26H53.3704ZM70.0478 26.2819C68.5882 26.2819 67.3258 25.9718 66.2608 25.3516C65.2021 24.7251 64.3845 23.8543 63.8082 22.7392C63.2318 21.6178 62.9437 20.3179 62.9437 18.8394C62.9437 17.3484 63.2318 16.0454 63.8082 14.9302C64.3845 13.8089 65.2021 12.9381 66.2608 12.3179C67.3258 11.6914 68.5882 11.3781 70.0478 11.3781C71.5075 11.3781 72.7667 11.6914 73.8255 12.3179C74.8905 12.9381 75.7111 13.8089 76.2875 14.9302C76.8639 16.0454 77.152 17.3484 77.152 18.8394C77.152 20.3179 76.8639 21.6178 76.2875 22.7392C75.7111 23.8543 74.8905 24.7251 73.8255 25.3516C72.7667 25.9718 71.5075 26.2819 70.0478 26.2819ZM70.0666 23.1809C70.7307 23.1809 71.2851 22.9929 71.7299 22.6171C72.1747 22.2349 72.5099 21.7149 72.7354 21.0571C72.9672 20.3993 73.0831 19.6507 73.0831 18.8112C73.0831 17.9718 72.9672 17.2231 72.7354 16.5653C72.5099 15.9075 72.1747 15.3876 71.7299 15.0054C71.2851 14.6233 70.7307 14.4322 70.0666 14.4322C69.3963 14.4322 68.8325 14.6233 68.3752 15.0054C67.9241 15.3876 67.5827 15.9075 67.3509 16.5653C67.1254 17.2231 67.0126 17.9718 67.0126 18.8112C67.0126 19.6507 67.1254 20.3993 67.3509 21.0571C67.5827 21.7149 67.9241 22.2349 68.3752 22.6171C68.8325 22.9929 69.3963 23.1809 70.0666 23.1809ZM79.755 11.5661H83.7582V26.7142C83.7582 27.8293 83.5389 28.7314 83.1004 29.4205C82.6619 30.1097 82.0323 30.614 81.2116 30.9335C80.3972 31.253 79.423 31.4127 78.2891 31.4127C78.1513 31.4127 78.0197 31.4096 77.8944 31.4033C77.7628 31.4033 77.625 31.4002 77.4809 31.3939V28.2647C77.5874 28.271 77.6814 28.2741 77.7628 28.2741C77.838 28.2804 77.9195 28.2835 78.0072 28.2835C78.6524 28.2835 79.1035 28.1457 79.3604 27.87C79.6235 27.6006 79.755 27.1934 79.755 26.6484V11.5661ZM81.7472 9.70546C81.1583 9.70546 80.6509 9.50813 80.2249 9.11345C79.7989 8.71251 79.5859 8.23325 79.5859 7.67569C79.5859 7.1244 79.7989 6.65141 80.2249 6.25674C80.6509 5.85579 81.1583 5.65532 81.7472 5.65532C82.3486 5.65532 82.8592 5.85579 83.2789 6.25674C83.7049 6.65141 83.9179 7.1244 83.9179 7.67569C83.9179 8.23325 83.7049 8.71251 83.2789 9.11345C82.8592 9.50813 82.3486 9.70546 81.7472 9.70546ZM93.5429 26.2819C92.0582 26.2819 90.7801 25.9812 89.7089 25.3798C88.6439 24.7721 87.8232 23.9138 87.2468 22.805C86.6705 21.6899 86.3823 20.3711 86.3823 18.8488C86.3823 17.3641 86.6705 16.061 87.2468 14.9396C87.8232 13.8183 88.6345 12.9443 89.6807 12.3179C90.7332 11.6914 91.9673 11.3781 93.3831 11.3781C94.3354 11.3781 95.2218 11.5316 96.0425 11.8386C96.8695 12.1393 97.5899 12.5935 98.2038 13.2012C98.824 13.8089 99.3064 14.5732 99.651 15.4941C99.9956 16.4087 100.168 17.48 100.168 18.7079V19.8073H87.9798V17.3265H96.3996C96.3996 16.7501 96.2743 16.2396 96.0237 15.7948C95.7731 15.35 95.4254 15.0023 94.9806 14.7517C94.5421 14.4948 94.0315 14.3664 93.4489 14.3664C92.8412 14.3664 92.3025 14.5074 91.8326 14.7893C91.369 15.0649 91.0057 15.4377 90.7426 15.9075C90.4794 16.3711 90.3448 16.888 90.3385 17.4581V19.8167C90.3385 20.5309 90.47 21.148 90.7332 21.6679C91.0025 22.1879 91.3816 22.5889 91.8702 22.8708C92.3589 23.1527 92.9383 23.2936 93.6087 23.2936C94.0535 23.2936 94.4607 23.231 94.8303 23.1057C95.1999 22.9804 95.5163 22.7925 95.7794 22.5419C96.0425 22.2913 96.243 21.9843 96.3808 21.621L100.083 21.8653C99.8953 22.7549 99.51 23.5317 98.9274 24.1958C98.3511 24.8536 97.6056 25.3673 96.6909 25.7369C95.7825 26.1002 94.7332 26.2819 93.5429 26.2819ZM109.302 26.2819C107.823 26.2819 106.552 25.9687 105.487 25.3422C104.428 24.7095 103.613 23.8324 103.043 22.711C102.48 21.5896 102.198 20.2991 102.198 18.8394C102.198 17.361 102.483 16.0642 103.053 14.949C103.629 13.8276 104.447 12.9537 105.505 12.3272C106.564 11.6945 107.823 11.3781 109.283 11.3781C110.542 11.3781 111.645 11.6068 112.591 12.0641C113.537 12.5215 114.285 13.1636 114.837 13.9905C115.388 14.8175 115.692 15.7885 115.748 16.9036H111.971C111.864 16.1832 111.582 15.6037 111.125 15.1652C110.674 14.7204 110.082 14.498 109.349 14.498C108.729 14.498 108.187 14.6671 107.723 15.0054C107.266 15.3374 106.909 15.823 106.652 16.462C106.395 17.101 106.267 17.8747 106.267 18.783C106.267 19.704 106.392 20.487 106.642 21.1323C106.899 21.7776 107.259 22.2694 107.723 22.6077C108.187 22.9459 108.729 23.1151 109.349 23.1151C109.806 23.1151 110.216 23.0211 110.58 22.8332C110.949 22.6452 111.253 22.3727 111.491 22.0156C111.736 21.6523 111.895 21.2169 111.971 20.7094H115.748C115.686 21.812 115.385 22.7831 114.846 23.6225C114.314 24.4557 113.577 25.1073 112.638 25.5771C111.698 26.047 110.586 26.2819 109.302 26.2819ZM125.989 11.5661V14.5732H117.296V11.5661H125.989ZM119.27 8.10796H123.273V21.5646C123.273 21.9342 123.329 22.2224 123.442 22.4291C123.555 22.6296 123.711 22.7705 123.912 22.852C124.119 22.9334 124.357 22.9741 124.626 22.9741C124.814 22.9741 125.002 22.9585 125.19 22.9272C125.378 22.8896 125.522 22.8614 125.622 22.8426L126.252 25.8215C126.051 25.8841 125.769 25.9561 125.406 26.0376C125.043 26.1253 124.601 26.1785 124.081 26.1973C123.116 26.2349 122.271 26.1065 121.544 25.8121C120.823 25.5176 120.263 25.0603 119.862 24.4401C119.461 23.8199 119.263 23.0368 119.27 22.0908V8.10796ZM140.425 15.682L136.76 15.9075C136.697 15.5943 136.563 15.3124 136.356 15.0618C136.149 14.8049 135.877 14.6013 135.538 14.451C135.206 14.2944 134.809 14.2161 134.345 14.2161C133.725 14.2161 133.202 14.3476 132.776 14.6107C132.35 14.8676 132.137 15.2122 132.137 15.6444C132.137 15.989 132.275 16.2803 132.55 16.5183C132.826 16.7564 133.299 16.9475 133.969 17.0916L136.582 17.6178C137.985 17.906 139.031 18.3696 139.72 19.0086C140.409 19.6476 140.754 20.487 140.754 21.527C140.754 22.473 140.475 23.303 139.917 24.0172C139.366 24.7314 138.608 25.289 137.643 25.6899C136.685 26.0846 135.579 26.2819 134.326 26.2819C132.415 26.2819 130.893 25.8841 129.759 25.0885C128.632 24.2866 127.971 23.1965 127.776 21.8183L131.714 21.6116C131.833 22.1942 132.121 22.639 132.578 22.9459C133.036 23.2467 133.621 23.397 134.336 23.397C135.037 23.397 135.601 23.2623 136.027 22.9929C136.459 22.7173 136.679 22.3633 136.685 21.9311C136.679 21.5677 136.525 21.2701 136.224 21.0383C135.924 20.8003 135.46 20.6186 134.834 20.4933L132.334 19.9953C130.924 19.7134 129.875 19.2247 129.186 18.5293C128.503 17.8339 128.162 16.9475 128.162 15.8699C128.162 14.9428 128.412 14.144 128.913 13.4737C129.421 12.8034 130.132 12.2865 131.047 11.9232C131.968 11.5598 133.045 11.3781 134.279 11.3781C136.102 11.3781 137.537 11.7634 138.583 12.534C139.636 13.3045 140.25 14.3539 140.425 15.682Z" fill="white"/>
<defs>
<clipPath id="clip0_3_119">
<rect width="31.3455" height="31.5679" fill="white"/>
</clipPath>
</defs>
</svg>
